{"title":"Ramji Rao Speaking Malayalam (1989)","uid":5960436,"size":1500258568,"categoryP":"video","categoryS":"movies","magnet":"?xt=urn:btih:479323cc89b702fc7d43ee2bad4e48b528953bff&amp;dn=Ramji+Rao+Speaking+Malayalam+%281989%29&amp;tr=udp%3A%2F%2Ftracker.openbittorrent.com%3A80&amp;tr=udp%3A%2F%2Fopen.demonii.com%3A1337&amp;tr=udp%3A%2F%2Ftracker.coppersurfer.tk%3A6969&amp;tr=udp%3A%2F%2Fexodus.desync.com%3A6969","seeders":0,"leechers":1,"uploader":"cijob","files":2,"time":1289935116,"description":"A nice comedy thriller by sidique and lal team\n\n\nGeneral\nComplete name                    : E:\\Malayalam Movies\\Ramji Rao Speaking\nFormat                           : CDXA/MPEG-\nFile size                        : 665 MiB\nDuration                         : 1h 6mn\nOverall bit rate                 : 1 411 Kbps\n\nVideo\nID                               : 224 (0xE0)\nFormat                           : MPEG Video\nFormat version                   : Version 1\nFormat settings, BVOP            : Yes\nFormat settings, Matrix          : Default\nDuration                         : 1h 6mn\nBit rate mode                    : Constant\nBit rate                         : 1 150 Kbps\nWidth                            : 352 pixels\nHeight                           : 288 pixels\nDisplay aspect ratio             : 4:3\nFrame rate                       : 25.000 fps\nStandard                         : PAL\nColor space                      : YUV\nBit depth                        : 8 bits\nScan type                        : Progressive\nBits/(Pixel*Frame)               : 0.454\nStream size                      : 546 MiB (82%)\n\nAudio\nID                               : 192 (0xC0)\nFormat                           : MPEG Audio\nFormat version                   : Version 1\nFormat profile                   : Layer 2\nDuration                         : 1h 5mn\nBit rate mode                    : Constant\nBit rate                         : 224 Kbps\nChannel(s)                       : 2 channels\nSampling rate                    : 44.1 KHz\nStream size                      : 106 MiB (16%)\n\n","torrent":{"xt":"urn:btih:479323cc89b702fc7d43ee2bad4e48b528953bff","amp;dn":"Ramji+Rao+Speaking+Malayalam+%281989%29","amp;tr":["udp%3A%2F%2Ftracker.openbittorrent.com%3A80","udp%3A%2F%2Fopen.demonii.com%3A1337","udp%3A%2F%2Ftracker.coppersurfer.tk%3A6969","udp%3A%2F%2Fexodus.desync.com%3A6969"],"infoHash":"479323cc89b702fc7d43ee2bad4e48b528953bff","infoHashBuffer":{"type":"Buffer","data":[71,147,35,204,137,183,2,252,125,67,238,43,173,78,72,181,40,149,59,255]},"announce":[],"urlList":[]}}